<mxfile host="app.diagrams.net" modified="2024-03-27T07:51:18.538Z" agent="Mozilla/5.0 (Windows NT 10.0; Win64; x64) AppleWebKit/537.36 (KHTML, like Gecko) Chrome/122.0.0.0 Safari/537.36 Edg/122.0.0.0" etag="qfd_QMWCH2rIWhbDEoAh" version="24.0.4" type="github">
  <diagram name="第 1 页" id="LydK5TDK-JhTfKe0Ka05">
    <mxGraphModel dx="1386" dy="793" grid="1" gridSize="10" guides="1" tooltips="1" connect="1" arrows="1" fold="1" page="1" pageScale="1" pageWidth="827" pageHeight="1169" math="0" shadow="0">
      <root>
        <mxCell id="0" />
        <mxCell id="1" parent="0" />
        <mxCell id="WNkkP0HVbQ9jUCyXgVwz-4" value="" style="endArrow=classic;html=1;rounded=0;endSize=15;entryX=0;entryY=0;entryDx=0;entryDy=0;" edge="1" parent="1" target="WNkkP0HVbQ9jUCyXgVwz-1">
          <mxGeometry width="50" height="50" relative="1" as="geometry">
            <mxPoint x="240" y="320" as="sourcePoint" />
            <mxPoint x="280" y="410" as="targetPoint" />
          </mxGeometry>
        </mxCell>
        <mxCell id="WNkkP0HVbQ9jUCyXgVwz-1" value="" style="ellipse;whiteSpace=wrap;html=1;aspect=fixed;container=0;" vertex="1" parent="1">
          <mxGeometry x="360" y="360" width="80" height="80" as="geometry" />
        </mxCell>
        <mxCell id="WNkkP0HVbQ9jUCyXgVwz-2" value="" style="endArrow=none;html=1;rounded=0;entryX=0.5;entryY=0;entryDx=0;entryDy=0;exitX=0.5;exitY=1;exitDx=0;exitDy=0;" edge="1" parent="1" source="WNkkP0HVbQ9jUCyXgVwz-1" target="WNkkP0HVbQ9jUCyXgVwz-1">
          <mxGeometry width="50" height="50" relative="1" as="geometry">
            <mxPoint x="340" y="500" as="sourcePoint" />
            <mxPoint x="430" y="370" as="targetPoint" />
          </mxGeometry>
        </mxCell>
        <mxCell id="WNkkP0HVbQ9jUCyXgVwz-5" value="" style="endArrow=classic;html=1;rounded=0;endSize=15;entryX=0;entryY=0.5;entryDx=0;entryDy=0;" edge="1" parent="1" target="WNkkP0HVbQ9jUCyXgVwz-1">
          <mxGeometry width="50" height="50" relative="1" as="geometry">
            <mxPoint x="240" y="400" as="sourcePoint" />
            <mxPoint x="312" y="446" as="targetPoint" />
          </mxGeometry>
        </mxCell>
        <mxCell id="WNkkP0HVbQ9jUCyXgVwz-6" value="" style="endArrow=classic;html=1;rounded=0;endSize=15;entryX=0;entryY=1;entryDx=0;entryDy=0;" edge="1" parent="1" target="WNkkP0HVbQ9jUCyXgVwz-1">
          <mxGeometry width="50" height="50" relative="1" as="geometry">
            <mxPoint x="240" y="480" as="sourcePoint" />
            <mxPoint x="342" y="492" as="targetPoint" />
          </mxGeometry>
        </mxCell>
        <mxCell id="WNkkP0HVbQ9jUCyXgVwz-7" value="" style="endArrow=classic;html=1;rounded=0;endSize=15;exitX=1;exitY=0.5;exitDx=0;exitDy=0;" edge="1" parent="1" source="WNkkP0HVbQ9jUCyXgVwz-1">
          <mxGeometry width="50" height="50" relative="1" as="geometry">
            <mxPoint x="490" y="452" as="sourcePoint" />
            <mxPoint x="520" y="400" as="targetPoint" />
          </mxGeometry>
        </mxCell>
        <mxCell id="WNkkP0HVbQ9jUCyXgVwz-8" value="&lt;i&gt;w&lt;/i&gt;&lt;sub&gt;1&lt;i&gt;j&lt;/i&gt;&lt;/sub&gt;" style="text;html=1;align=center;verticalAlign=middle;whiteSpace=wrap;rounded=0;fontSize=20;fontFamily=Times New Roman;" vertex="1" parent="1">
          <mxGeometry x="230" y="290" width="60" height="30" as="geometry" />
        </mxCell>
        <mxCell id="WNkkP0HVbQ9jUCyXgVwz-10" value="&lt;i&gt;w&lt;sub style=&quot;&quot;&gt;i&lt;/sub&gt;&lt;sub&gt;j&lt;/sub&gt;&lt;/i&gt;" style="text;html=1;align=center;verticalAlign=middle;whiteSpace=wrap;rounded=0;fontSize=20;fontFamily=Times New Roman;" vertex="1" parent="1">
          <mxGeometry x="230" y="360" width="60" height="30" as="geometry" />
        </mxCell>
        <mxCell id="WNkkP0HVbQ9jUCyXgVwz-11" value="&lt;i&gt;w&lt;sub&gt;n&lt;/sub&gt;&lt;/i&gt;&lt;sub&gt;&lt;i&gt;j&lt;/i&gt;&lt;/sub&gt;" style="text;html=1;align=center;verticalAlign=middle;whiteSpace=wrap;rounded=0;fontSize=20;fontFamily=Times New Roman;" vertex="1" parent="1">
          <mxGeometry x="230" y="430" width="60" height="30" as="geometry" />
        </mxCell>
        <mxCell id="WNkkP0HVbQ9jUCyXgVwz-12" value="∑" style="text;html=1;align=center;verticalAlign=middle;whiteSpace=wrap;rounded=0;fontSize=20;" vertex="1" parent="1">
          <mxGeometry x="354" y="385" width="60" height="30" as="geometry" />
        </mxCell>
        <mxCell id="WNkkP0HVbQ9jUCyXgVwz-14" value="&lt;i style=&quot;font-size: 25px;&quot;&gt;&lt;font face=&quot;Times New Roman&quot; style=&quot;font-size: 25px;&quot;&gt;f&lt;/font&gt;&lt;/i&gt;" style="text;html=1;align=center;verticalAlign=middle;whiteSpace=wrap;rounded=0;fontSize=25;" vertex="1" parent="1">
          <mxGeometry x="384" y="385" width="60" height="30" as="geometry" />
        </mxCell>
        <mxCell id="WNkkP0HVbQ9jUCyXgVwz-15" value="&lt;i style=&quot;font-size: 20px;&quot;&gt;x&lt;/i&gt;&lt;sub style=&quot;font-size: 20px;&quot;&gt;1&lt;/sub&gt;" style="text;html=1;align=center;verticalAlign=middle;whiteSpace=wrap;rounded=0;fontSize=20;fontFamily=Times New Roman;" vertex="1" parent="1">
          <mxGeometry x="190" y="300" width="60" height="30" as="geometry" />
        </mxCell>
        <mxCell id="WNkkP0HVbQ9jUCyXgVwz-16" value="&lt;i style=&quot;font-size: 20px;&quot;&gt;x&lt;sub&gt;i&lt;/sub&gt;&lt;/i&gt;" style="text;html=1;align=center;verticalAlign=middle;whiteSpace=wrap;rounded=0;fontSize=20;fontFamily=Times New Roman;" vertex="1" parent="1">
          <mxGeometry x="190" y="385" width="60" height="30" as="geometry" />
        </mxCell>
        <mxCell id="WNkkP0HVbQ9jUCyXgVwz-17" value="&lt;i style=&quot;font-size: 20px;&quot;&gt;x&lt;/i&gt;&lt;span style=&quot;font-size: 20px;&quot;&gt;&lt;sub&gt;n&lt;/sub&gt;&lt;/span&gt;" style="text;html=1;align=center;verticalAlign=middle;whiteSpace=wrap;rounded=0;fontSize=20;fontFamily=Times New Roman;" vertex="1" parent="1">
          <mxGeometry x="190" y="470" width="60" height="30" as="geometry" />
        </mxCell>
        <mxCell id="WNkkP0HVbQ9jUCyXgVwz-18" value="……" style="text;html=1;align=center;verticalAlign=middle;whiteSpace=wrap;rounded=0;fontSize=20;fontStyle=1;labelPosition=center;verticalLabelPosition=middle;direction=west;textDirection=vertical-lr;" vertex="1" parent="1">
          <mxGeometry x="190" y="335" width="60" height="55" as="geometry" />
        </mxCell>
        <mxCell id="WNkkP0HVbQ9jUCyXgVwz-19" value="……" style="text;html=1;align=center;verticalAlign=middle;whiteSpace=wrap;rounded=0;fontSize=20;fontStyle=1;labelPosition=center;verticalLabelPosition=middle;direction=west;textDirection=vertical-lr;" vertex="1" parent="1">
          <mxGeometry x="190" y="417.5" width="60" height="55" as="geometry" />
        </mxCell>
        <mxCell id="WNkkP0HVbQ9jUCyXgVwz-20" value="&lt;span style=&quot;font-size: 20px;&quot;&gt;&lt;i style=&quot;&quot;&gt;y&lt;sub&gt;i&lt;/sub&gt;&lt;/i&gt;&lt;/span&gt;" style="text;html=1;align=center;verticalAlign=middle;whiteSpace=wrap;rounded=0;fontSize=20;fontFamily=Times New Roman;" vertex="1" parent="1">
          <mxGeometry x="510" y="385" width="60" height="30" as="geometry" />
        </mxCell>
        <mxCell id="WNkkP0HVbQ9jUCyXgVwz-21" value="" style="shape=curlyBracket;whiteSpace=wrap;html=1;rounded=1;labelPosition=left;verticalLabelPosition=middle;align=right;verticalAlign=middle;" vertex="1" parent="1">
          <mxGeometry x="180" y="310" width="20" height="180" as="geometry" />
        </mxCell>
        <mxCell id="WNkkP0HVbQ9jUCyXgVwz-23" value="&lt;span style=&quot;font-size: 20px;&quot;&gt;&lt;i style=&quot;&quot;&gt;X&lt;sub&gt;i&lt;/sub&gt;&lt;/i&gt;&lt;/span&gt;" style="text;html=1;align=center;verticalAlign=middle;whiteSpace=wrap;rounded=0;fontSize=20;fontFamily=Times New Roman;" vertex="1" parent="1">
          <mxGeometry x="130" y="385" width="60" height="30" as="geometry" />
        </mxCell>
        <mxCell id="WNkkP0HVbQ9jUCyXgVwz-24" value="" style="endArrow=classic;html=1;rounded=0;endSize=15;entryX=0.5;entryY=0;entryDx=0;entryDy=0;" edge="1" parent="1" target="WNkkP0HVbQ9jUCyXgVwz-1">
          <mxGeometry width="50" height="50" relative="1" as="geometry">
            <mxPoint x="400" y="290" as="sourcePoint" />
            <mxPoint x="466" y="282" as="targetPoint" />
          </mxGeometry>
        </mxCell>
        <mxCell id="WNkkP0HVbQ9jUCyXgVwz-25" value="&lt;span style=&quot;font-size: 20px;&quot;&gt;&lt;i style=&quot;&quot;&gt;b&lt;sub&gt;i&lt;/sub&gt;&lt;/i&gt;&lt;/span&gt;" style="text;html=1;align=center;verticalAlign=middle;whiteSpace=wrap;rounded=0;fontSize=20;fontFamily=Times New Roman;" vertex="1" parent="1">
          <mxGeometry x="370" y="260" width="60" height="30" as="geometry" />
        </mxCell>
      </root>
    </mxGraphModel>
  </diagram>
</mxfile>
